<?xml version="1.0" standalone="no"?>
<!DOCTYPE svg PUBLIC "-//W3C//DTD SVG 1.1//EN" "http://www.w3.org/Graphics/SVG/1.1/DTD/svg11.dtd" >
<!--
2013-9-30: Created.
-->
<svg>
<metadata>
Created by iconfont
</metadata>
<defs>

<font id="iconfont" horiz-adv-x="1024" >
  <font-face
    font-family="iconfont"
    font-weight="500"
    font-stretch="normal"
    units-per-em="1024"
    ascent="896"
    descent="-128"
  />
    <missing-glyph />
    
    <glyph glyph-name="icon" unicode="&#58893;" d="M255.979 288h576v-64h-576v64z"  horiz-adv-x="1024" />

    
    <glyph glyph-name="shanchu" unicode="&#58920;" d="M191.9808 648.8384c0 21.952 17.9136 39.7952 40.0064 39.7952l200.0384 0 0 39.648c0 21.984 17.8752 39.7184 40.0064 39.7184l80.0128 0c22.0544 0 40.0128-17.8048 40.0128-39.7184l0-39.7888 199.9616 0c22.0544 0 40.0064-17.7728 40.0064-39.7248l0-39.7888L191.9808 608.9792 191.9808 648.8384zM792.0192 529.7216l0-79.4432 0-410.4896c0-21.9904-17.952-39.7952-40.0064-39.7952L271.9936-0.0064c-22.0928 0-40.0064 17.8048-40.0064 39.7952L231.9872 450.2784 231.9872 529.7216l0 39.648 560.032 0L792.0192 529.7216zM392.0128 450.208c0 21.9136-18.0224 39.7888-40.0832 39.7888-21.984 0-39.936-17.8752-39.936-39.7888l0-331.0528c0-21.9136 17.952-39.7184 40.0064-39.7184 22.1312 0 40.0064 17.8048 40.0064 39.7184L392.0064 450.208zM552.0448 450.208c0 21.9136-18.016 39.7888-40.0064 39.7888-22.1312 0-40.0064-17.8752-40.0064-39.7888l0-331.0528c0-21.9136 17.9456-39.7184 40.0064-39.7184 21.9904 0 40.0064 17.8048 40.0064 39.7184L552.0448 450.208zM712.0064 450.208c0 21.9136-17.952 39.7888-40.0128 39.7888-22.1312 0-40.0064-17.8752-40.0064-39.7888l0-331.0528c0-21.9136 17.952-39.7184 40.0064-39.7184 22.0608 0 40.0128 17.8048 40.0128 39.7184L712.0064 450.208z"  horiz-adv-x="1024" />

    
    <glyph glyph-name="gou" unicode="&#58951;" d="M378.88 51.2 25.6 404.48 97.28 478.72 378.88 197.12 926.72 742.4 998.4 670.72Z"  horiz-adv-x="1024" />

    
    <glyph glyph-name="xiala" unicode="&#58966;" d="M787.2 515.2c-9.6 9.6-22.4 12.8-35.2 12.8l-480-3.2c-12.8 0-25.6-3.2-35.2-12.8-19.2-19.2-19.2-48 0-67.2l240-240c3.2-3.2 9.6-6.4 12.8-9.6l3.2-3.2c16-6.4 38.4-3.2 51.2 9.6l240 243.2c22.4 22.4 19.2 51.2 3.2 70.4z"  horiz-adv-x="1024" />

    
    <glyph glyph-name="yhq" unicode="&#58880;" d="M21.0958975 613.28171446c0 29.09017362 4.95998023 49.80278596 14.22680299 62.37119914 9.50018486 12.38061881 30.40197239 18.43284414 63.21489289 18.43284415h201.60137933v-807.51709417h-86.57043456c-23.17188986 0-45.92952747 0.18503267-68.45104128 0.74427321-22.75487593 0.37282702-38.09463662 0.69732462-46.48462547 0.69732462-28.40803825-1.07015165-48.3832816 3.76969545-60.0154847 14.70871645-11.49549985 10.7056589-17.42759202 31.32575491-17.42759202 61.44051241v232.44798248c0 11.82275913 1.9925533 20.80650951 5.56202683 26.48314613 3.56947353 5.86443097 11.26075692 10.00833428 22.84739226 12.19420532 4.26403647 0 9.87163104 1.67634076 17.42759203 4.88817651 7.23008256 3.35130067 14.59963003 8.61092337 21.9222289 15.59107373 7.32259888 6.93596346 13.71865358 15.918333 18.90785339 27.4152137 5.19196149 11.17100225 7.92602634 24.85651566 7.92602632 41.14491401 0 24.76261849-6.48995186 44.03087133-19.60379717 58.04226316-13.16217473 13.96444325-27.25089365 22.20115875-42.03555632 24.1578102-11.40160268 2.09473553-19.88134618 5.77191463-25.11749458 10.51924538-5.28309699 5.0262606-7.92602634 13.31130554-7.92602633 25.13406466v171.10136723zM151.92642296 766.69727243v42.0783624c0 21.36436922 8.34165941 41.47217328 24.47126108 59.71998475 16.17378855 18.24643062 33.87754875 27.50773004 52.78678297 27.50773004h217.68127071v-129.30331552h-294.93793392zM1436.8830401 416.30200937c-8.20219449-2.28114905-14.41321652-6.79649853-18.16772271-13.91611381-3.38444085-6.79649853-5.56202684-14.66314869-5.56202685-23.13322631 0-8.79733689 2.08506965-17.03681407 5.56202685-24.99459974 3.75450621-8.28504494 9.96414738-13.96444325 18.16772271-17.08100098 8.38722716-3.39824927 15.15472803-9.82053993 19.79021068-19.36215002 4.86608306-9.77497219 7.50901238-19.87306113 7.87907774-30.81208213 0.55509801-10.7056589-0.92654419-21.08543937-3.93953888-30.62704945-3.19802734-9.58717783-7.83212914-16.66398705-14.04177034-21.08543938-20.99430387-12.93985934-31.42241377-27.41521371-31.42241375-43.51996021 0-16.15169511 10.33421273-32.48842288 31.42241375-48.35980731 4.26403647-3.39824927 8.01854265-9.35519659 11.77166802-17.6871901 3.56947353-8.79733689 5.37561332-17.31436307 5.37561333-26.15864854 0-8.61092337-1.90003697-15.9652816-6.20964119-22.34200452-4.26265563-6.61008501-11.58663534-9.82192077-22.10726157-9.82192077h-85.08879235c-6.02460852 0-9.59270119 0.55785969-9.96414739 1.81442483-0.50953026 1.11710022 0.18503267 2.84038958 2.13201823 5.44741706 2.08645049 2.84038958 4.63134013 5.77191463 7.83212916 9.16878306 3.19802734 3.2132166 5.74705951 6.93596346 8.0641104 11.26351859 5.19196149 15.03321405 5.19196149 27.97307339 0 38.68011313-5.42118107 10.93764016-14.08871891 19.92139056-26.97334463 27.4152137-8.388608 4.32755513-14.59963003 11.12405367-17.98130922 20.47925024-3.7075576 8.98375039-5.19196149 18.43284414-4.63272095 28.15948692 0.37144618 9.77497219 2.08645049 18.24643062 5.37561333 25.73887294 3.19802734 7.72718525 8.01854265 13.12627285 14.04177032 16.33810861 8.61920842 3.2132166 14.7846627 9.16878307 18.90785339 17.68719012 4.30960421 8.42312903 6.3960547 17.68719009 6.3960547 27.41521369 0 9.72802361-1.80752063 18.61649598-4.63272097 26.71650824-3.19802734 8.05168284-7.87907774 13.73108114-14.46016509 16.84901973-8.20219449 4.46840091-14.7846627 10.7056589-19.60379717 19.54856353-4.77356673 8.23809635-7.04366905 17.87360361-7.04366904 28.67177886 0 10.93764016 1.94560473 21.27185289 6.20964119 31.55773616 4.30960421 10.24169639 10.89069157 18.61649598 20.34392785 25.04016748 6.57970652 4.28060655 11.81723577 10.14641837 15.89623954 17.6871901 4.49463689 7.72718525 6.3960547 15.59245458 7.32259889 24.20337795 0.55509801 8.70482054-1.48302304 16.9429169-4.86608306 25.04016749-3.7075576 8.14696086-10.28864497 14.75428419-19.79021067 20.15337181-10.33421273 5.35213904-18.16634187 13.31130554-22.84739226 23.41215615-4.63134013 10.24169639-7.09199847 20.89902587-7.09199847 31.51216842 0 10.93764016 2.45651582 21.03849077 7.09199847 30.81208212 4.6810504 9.54299092 11.26075692 17.2674145 19.65074574 22.7603993 17.79627653 9.54299092 27.85294023 22.8556773 29.19511753 39.42438634 1.66667488 16.70955481 0.37144618 32.20949305-3.89397112 45.93919334-3.38444085 10.93764016-9.50018486 20.57314742-18.72420156 29.1840708-9.59270119 8.70482054-21.73719623 12.93985934-36.33406457 12.93985934h-756.76567055v127.53445842h887.68871234c7.32259888 0 13.34858823-2.74511155 18.53778806-8.05168284 5.37561332-5.44741705 8.94508686-11.86970772 10.47367764-19.45604719 1.66667488-7.54077173 1.11295771-15.31352473-1.62248797-23.36658841-2.45513499-8.00611509-7.50901238-14.98764629-14.96831453-20.38673392-6.3960547-5.39908762-11.95670069-12.1942053-16.63775108-20.89902585-4.82051531-8.61092337-7.09061763-17.40826027-8.01854265-26.66955965-0.37144618-9.26268023 1.06600912-18.24643062 4.12457153-27.50773004 2.96604609-9.07626672 8.76005418-15.87276526 17.24117852-20.2003204 11.77166801-6.4236715 20.34392784-15.31352473 25.99985186-26.48314614 5.83819501-11.26351859 8.89813826-22.57398577 8.89813826-33.74498805 0-11.44855125-3.05856242-21.92360975-8.80562193-31.55773616-5.74705951-9.82192077-13.67170499-16.84901973-24.28484755-20.99292302-11.58663534-4.46840091-20.16165685-10.51924539-25.30252723-18.61649598-5.37561332-8.14558001-8.01854265-17.03543325-8.7600542-26.57704334-0.50953026-9.72802361 1.48302304-19.17573651 6.02460853-28.25338406 4.86608306-9.26268023 12.51456037-17.22184675 23.03242491-23.64413743 10.47367765-6.23725799 18.35413621-14.84680053 22.98547635-25.78582152 4.6810504-10.65732947 6.58108737-21.36436922 6.20964117-32.25644162-0.55371717-10.75122666-3.19802734-20.66566375-7.83212914-29.92834401-4.82051531-8.98236957-11.67915168-14.1964245-21.27323373-15.31352473v0zM1231.99249792 440.50538733c-12.51456037-3.2132166-22.29229426-9.49604235-29.24344693-18.43284415-6.72055229-9.35519659-10.28864497-18.61649598-11.03015651-28.48674619-0.37144618-9.63550725 2.27010231-19.36215003 7.87907773-29.18407079 6.02460852-9.54299092 14.41321652-16.47619271 26.18488453-20.80512869 10.33421273-4.51534949 18.35413621-10.89207242 23.54333604-19.36215001 5.37561332-8.79733689 8.24914308-17.87360361 8.76005418-27.60162722 0.55509801-9.72802361-1.43745531-18.99070384-5.56202684-27.4152137-4.07762295-8.61092337-10.47367765-15.21962755-18.90785338-19.31520143-26.18488453-13.12627285-39.94910586-28.7173466-40.78313371-46.96377722-1.29799037-18.24643062 8.76005418-32.72178498 29.75435806-43.75332233 9.50018486-4.32755513 17.14728135-10.89207242 22.8018245-20.06085547 5.88652443-9.16878307 8.9906546-18.80429034 9.63964979-29.1840708 0.50953026-10.00833428-1.48302304-19.36215003-5.7940081-27.22880019-4.12457153-8.42312903-11.03015649-13.7766489-20.34392785-17.22184675-12.69683137-3.25740351-22.29229426-8.98375039-29.38291187-17.73551953-6.58108737-8.42312903-10.14918005-17.68719009-10.70703974-27.22880019-0.74289237-9.96000485 1.90003697-19.50299579 7.83212916-29.13574136 5.79400809-9.82053993 15.0152631-17.87360361 27.48149405-24.38979146 8.62058926-4.32755513 14.4601651-11.12405367 18.2146713-20.10642323 3.7075576-9.35519659 5.00416715-18.06001712 4.07762296-26.67094049-1.29799037-8.61092337-4.07762295-16.52314129-8.94508686-23.31963982-4.63134013-7.12099613-11.21518916-10.51924539-19.78882983-10.5192454h-824.52076806v807.70350768h833.97538516c8.43693742 0 15.20029579-3.30435209 20.0208111-10.56757482 4.63134013-6.9815312 7.13618537-14.66314869 7.87907774-23.36658841 0.50953026-8.70482054-1.48302304-17.2674145-5.7940081-25.78582153-4.12457153-8.51840703-11.03015649-14.56925152-20.34392784-17.68719011-9.50018486-3.30435209-17.14728135-8.70482054-23.03242493-16.24421143-5.83819501-7.39992596-9.12873868-15.9652816-10.28864497-24.94765115-0.92654419-9.21573166 1.25242263-17.9675008 6.3960547-26.66955967 5.37561332-8.70482054 14.22680301-15.12849205 26.9250152-19.31520142 9.31377135-4.32755513 17.14728135-10.75122666 22.84739227-19.4560472 5.65454317-8.70482054 9.12873868-17.453828 9.45461711-26.53147557 0.55509801-9.44771291-1.62248797-17.87360361-6.16407344-26.11169997-4.6810504-7.91221792-12.37509547-13.68275171-23.03242493-16.89596831v0zM851.96577165 332.14666542c-5.00416715 0-10.65871031 0.55785969-16.59218333 1.62939216-5.70011091 1.30351374-6.76612003 4.51396864-3.93953887 9.82192078 1.29799037 1.90832202 6.20964118 9.63550725 15.15472804 22.57398577 8.94508686 13.07932428 18.72420157 26.66955966 29.93939073 41.144914 11.07710509 14.66314869 20.99430387 28.34451957 30.86455408 41.19186261 9.31377135 12.93985934 15.15610887 20.99292302 17.19561076 24.38979144 5.37561332 8.42312903 2.08645049 18.61649598-9.50018485 30.53453312-1.94560473 2.18725186-6.25658977 5.49160395-12.69821222 9.91167543-6.02460852 4.18947106-11.86418435 7.39992596-17.10033275 9.54299094-8.57364067 3.11793857-14.59963003 3.72274686-18.35413622 1.53687583-3.38444085-2.09473553-8.01854265-6.88763403-13.20636163-14.47535435-2.13201823-3.11793857-7.32259888-11.03153733-15.89623956-23.31963982-8.29609167-12.61398092-17.24117851-25.64635661-26.74136337-39.70331619-9.40904938-14.10390816-18.1677227-26.66955966-26.04680045-37.74804557-8.01854265-11.49688069-12.41928237-18.06001712-13.34858824-20.38673391-1.9925533-4.14252247-6.0715571-5.95832815-11.95670069-4.83984708-5.74705951 1.11710022-9.54713344 3.76969545-11.58663534 8.05168283-1.25242263 2.09473553-5.83819501 8.42312903-14.32208101 18.80429033-8.48112433 10.00833428-17.51872752 21.45688556-26.83387972 34.5831584-9.31377135 13.12627285-18.53778805 24.85651566-27.48287491 36.30506693-9.03760318 11.35741577-14.96831452 19.08460101-18.26023904 23.55162108-9.50018486 18.24643062-19.46571309 24.11086162-29.84687438 17.64024152-7.41511522-4.23641964-14.08871891-8.84428547-19.92691392-13.59161622-5.74705951-5.07320917-11.21518916-9.07626672-16.4527184-12.38061883-10.47367765-7.35297739-12.04921702-17.17627901-4.727999-28.99903812 17.79627653-21.45688556 33.69251609-41.33132752 47.36422108-59.76417166 11.54106761-15.03321405 22.47732691-29.3704843 33.18298582-43.75332232 10.3811613-13.77802974 16.68469967-21.83109342 18.67725297-24.20337796 2.22591541-4.14252247 0-6.4236715-6.30353836-6.4236715h-18.72420155c-5.19196149 0-12.93019346-0.18503267-22.80182451-0.7442732-10.14918005-0.55785969-19.37181591-0.37282702-27.85294025 0.7442732-8.29609167 0-15.24724436-1.90832202-20.5317222-6.42367151-5.09806432-4.14252247-6.76612003-9.54299092-4.5871532-15.918333 1.02044138-4.51534949 1.57692021-10.93764016 1.5769202-19.36215003v-19.73635789c0-5.21405494 1.43745531-8.23809635 4.727999-8.79733687 3.19802734-0.46534335 6.76612003-0.65175686 11.07710507-0.65175686h91.4862279c12.41928237 0 18.72282073-2.65259522 18.72282071-8.05168286v-30.62704943c0-5.58412029-0.92654419-8.28504494-3.10413016-8.28504495h-105.6660823c-6.20964118 1.11710022-10.33421273-0.55785969-12.51456039-4.65343358-1.9925533-4.51534949-3.52252494-9.35519659-4.72799899-14.66314869-1.11295771-5.58412029-1.11295771-10.56757482 0-15.21962756 1.20547404-5.07320917 1.43745531-9.16878307 1.43745531-12.19420532 0-14.15085676 6.85863636-21.08543937 20.57728995-21.08543936h94.68287439c5.46951051 0 8.48112433-0.74427321 9.40766852-2.32809763 0.97349278-1.62801133 1.62248797-5.2126741 1.62248798-10.51924539 1.11295771-5.44741705 1.48302304-15.03321405 0.74289235-28.99903812-0.46396251-14.10390816-0.83402786-23.18017489-0.83402784-27.69552439 0-11.82275913 6.85863636-17.68719009 20.43644416-17.68719011h50.61057786c8.388608 0 12.69821221 2.65259522 12.6982122 8.23809637v64.46593465c0 10.93764016 4.82051531 16.33810862 14.04315117 16.33810863h14.226803c7.32259888 0 15.70982605 0.18503267 24.47126106 0.93068671 9.13011952 0.37282702 17.65681162 0.74427321 25.86038694 0.7442732h20.5317222c14.59963003 0 22.29229426 5.35213904 22.29229425 15.91833301v35.6546909c0 9.82192077-5.19196149 14.70871645-15.71120689 14.70871644h-91.66987972c-10.33421273-2.28114905-15.89623956 0-15.89623955 6.4236715 0 2.97847365-0.18365184 7.12099613-0.74289235 12.00779181-0.50953026 4.83984708-0.6020466 9.16878307-0.60204662 13.63994565 0 4.14252247 1.62248797 7.54077173 5.37561334 9.54299092 3.84840338 2.28114905 7.73961282 3.39824927 11.86418434 3.39824926h93.10733502c10.33421273 0 15.75677462 3.58328194 15.75677463 11.26351861v38.81957805c0 4.28060655-1.85446923 8.42312903-5.60621375 12.70787809-3.7075576 4.51534949-8.20219449 6.4236715-13.30163965 6.42367152l-53.71470801 0.04694859z"  horiz-adv-x="1484" />

    
    <glyph glyph-name="icon-bainji" unicode="&#58926;" d="M342.753853 335.510636c-0.582261-0.775666-1.165546-1.578961-1.432629-2.550079L296.089044 161.529139c-2.623757-9.984399 0.071631-20.745487 7.215332-28.326139 5.344728-5.392824 12.388145-8.355295 19.895119-8.355295 2.476401 0 4.953825 0.290619 7.383154 0.970095l164.630524 46.423309c0.267083 0 0.388856-0.242524 0.582262-0.242524 1.896186 0 3.76679 0.705058 5.1503 2.209318l440.229396 455.072453c13.069667 13.531178 20.233833 31.969109 20.233834 52.034097 0 22.738887-9.328459 45.452191-25.651217 62.311161l-41.564651 43.046398c-16.324804 16.882506-38.335097 26.551726-60.294224 26.551726-19.409049 0-37.241182-7.40976-50.357922-20.916378l-440.133205-455.217763c-0.459464-0.436952-0.337691-1.068332-0.653893-1.578961z m555.327808 338.346985l-43.726898-45.183062-70.860884 74.455759 43.094494 44.552705c6.801916 7.093559 20.017916 6.048763 27.839045-2.065032l41.611723-43.046399c4.325515-4.494361 6.801916-10.444886 6.801917-16.348339-0.023536-4.835122-1.675152-9.231245-4.759397-12.365632zM421.025521 328.36898199999996l317.647547 328.435241 70.934562-74.503855L492.540298 254.49650699999995l-71.514777 73.872475m-57.866943-133.169999l22.957875 87.113033 61.241806-63.306838-84.199681-23.806195M925.967778 493.510136c-16.663518 0-30.316469-14.017248-30.389124-31.485085v-424.267866c0-22.25077-17.466814-40.324404-39.014572-40.324404H162.381809c-21.523199 0-39.061644 18.073634-39.061644 40.324404V730.265328c0 22.276353 17.539468 40.35101 39.061644 40.35101h447.079408c16.762779 0 30.365588 14.08888 30.365588 31.409361 0 17.295921-13.602809 31.385824-30.365588 31.385824H157.742139c-52.447513 0-95.154173-44.11473-95.154174-98.384751v-702.07708c0-54.271044 42.706661-98.360192 95.154174-98.360192H861.15668c52.495608 0 95.15315 44.089148 95.15315 98.360192v429.297416c-0.049119 17.246803-13.676487 31.263028-30.342052 31.263028z"  horiz-adv-x="1024" />

    
    <glyph glyph-name="shijian" unicode="&#58918;" d="M506.592-55.68c-242.624 0-440 197.408-440 440 0 242.656 197.376 440 440 440s440-197.344 440-440c0-242.592-197.376-440-440-440m0 944C228.672 888.32 2.592 662.304 2.592 384.32c0-277.888 226.08-504 504-504 277.92 0 504 226.112 504 504 0 277.952-226.08 504-504 504M534.144 406.336V694.784c0.032 0.32 0.224 0.576 0.224 0.896a32.224 32.224 0 0 1-64.448 2.56c0-0.512 0.224-0.896 0.224-1.376v-316c-0.544-2.56-1.376-5.056-1.248-7.776 0.64-16.288 13.376-28.736 29.152-30.272 0.992-0.128 1.824-0.64 2.88-0.704 0.224 0 0.416 0.128 0.672 0.128 0.256 0 0.448-0.128 0.704-0.128 0.32 0.032 0.576 0.224 0.896 0.224H823.68c0.48 0 0.864-0.224 1.344-0.224a32.256 32.256 0 0 1-2.528 64.448c-0.32 0-0.608-0.192-0.928-0.224h-287.36z"  horiz-adv-x="1024" />

    
    <glyph glyph-name="lunboyoufangun" unicode="&#59325;" d="M740.894 450.259l-427.67 427.67c-24.095 24.095-60.236 24.095-84.33 0-24.094-24.094-24.094-60.235 0-84.329L614.4 408.094 228.894 22.588c-24.094-24.094-24.094-60.235 0-84.33 24.094-24.093 60.235-24.093 84.33 0l427.67 427.671c12.047 12.047 18.07 30.118 18.07 42.165 0 18.07-6.023 30.118-18.07 42.165z"  horiz-adv-x="1024" />

    
    <glyph glyph-name="lunbozuofangun" unicode="&#59326;" d="M228.894 450.259l427.67 427.67c24.095 24.095 60.236 24.095 84.33 0 24.094-24.094 24.094-60.235 0-84.329L355.388 408.094l385.506-385.506c24.094-24.094 24.094-60.235 0-84.33-24.094-24.093-60.235-24.093-84.33 0L228.895 365.93c-12.047 12.047-18.07 30.118-18.07 42.165 0 18.07 6.023 30.118 18.07 42.165z"  horiz-adv-x="1024" />

    
    <glyph glyph-name="daoru" unicode="&#58937;" d="M563.2 853.333333v-640c0-23.466667-19.2-42.666667-42.666667-42.666666s-42.666667 19.2-42.666666 42.666666V853.333333c0 23.466667 19.2 42.666667 42.666666 42.666667s42.666667-19.2 42.666667-42.666667M806.1952 438.724267L550.5792 183.099733a42.7776 42.7776 0 0 0-60.330667 0c-16.597333 16.605867-16.597333 43.776 0 60.330667l255.616 255.624533a42.7776 42.7776 0 0 0 60.330667 0 42.7776 42.7776 0 0 0 0-60.330666M490.350933 183.1168L234.734933 438.724267a42.7776 42.7776 0 0 0 0 60.330666c16.597333 16.605867 43.776 16.605867 60.330667 0l255.616-255.616a42.7776 42.7776 0 0 0 0-60.330666 42.7776 42.7776 0 0 0-60.330667 0M904.533333-128H136.533333c-70.570667 0-128 57.429333-128 128V256c0 23.594667 19.072 42.666667 42.666667 42.666667s42.666667-19.072 42.666667-42.666667v-256c0-23.552 19.114667-42.666667 42.666666-42.666667h768c23.552 0 42.666667 19.114667 42.666667 42.666667V256c0 23.594667 19.072 42.666667 42.666667 42.666667s42.666667-19.072 42.666666-42.666667v-256c0-70.570667-57.429333-128-128-128"  horiz-adv-x="1032" />

    
    <glyph glyph-name="xinzeng" unicode="&#58945;" d="M981.333333 426.666667H554.666667V853.333333c0 23.466667-19.2 42.666667-42.666667 42.666667s-42.666667-19.2-42.666667-42.666667v-426.666666H42.666667c-23.466667 0-42.666667-19.2-42.666667-42.666667s19.2-42.666667 42.666667-42.666667h426.666666v-426.666666c0-23.466667 19.2-42.666667 42.666667-42.666667s42.666667 19.2 42.666667 42.666667V341.333333h426.666666c23.466667 0 42.666667 19.2 42.666667 42.666667s-19.2 42.666667-42.666667 42.666667"  horiz-adv-x="1024" />

    
    <glyph glyph-name="EXCEL" unicode="&#58940;" d="M866.83136 675.80928l-110.2336 110.44352c-24.01792 23.99744-71.32672 43.70944-105.30816 43.70944H281.09824c-34.01728-0.11264-61.54752-27.73504-61.62432-61.824v-124.73344h49.33632V768.13312c0 6.74816 5.78048 12.31872 12.3648 12.31872h370.25792c3.60448 0 7.88992-0.42496 12.29824-1.29024v-196.48512h196.21888c0.8704-4.49024 1.29536-28.92288 1.29536-32.61952v-528c0-6.74304-5.78048-12.3136-12.34432-12.3136H281.09824a12.5696 12.5696 0 0 0-12.288 12.3136v41.45664h-49.40288v-41.45664c0-34.05312 27.70432-61.81888 61.69088-61.81888h567.71584c33.99168 0 61.69088 27.76576 61.69088 61.81888V549.97504c0 34.06848-19.59936 101.8368-43.61216 125.83424h-0.06144z m-153.856-43.70944V758.42048c3.13344-2.1248 6.0416-4.54144 8.68352-7.23968l110.15168-110.39232c2.65216-2.69312 5.06368-5.6064 7.23968-8.69376h-126.14656 0.07168zM593.85344 366.09536h202.51648v-57.96352h-202.51648v57.96352z m0-115.94752h202.51648v-57.984h-202.51648v57.984z m0 231.91552h202.51648v-57.96352h-202.51648V482.06336zM74.24 585.35424v-463.86176h462.90944V585.35424H74.24z m301.38368-386.4576l-70.14912 99.15392-70.36928-99.15392H132.32128l121.22624 167.72096-110.3104 154.30144h100.61312l62.9248-91.3152 61.696 91.3152h99.82976L357.632 364.36992l121.43616-165.47328H375.62368z"  horiz-adv-x="1024" />

    
    <glyph glyph-name="dayin" unicode="&#58935;" d="M682.88 247.48800000000006H341.76a34.176 34.176 0 1 1 0-68.288h341.12a33.344 33.344 0 0 1 33.92 34.176 33.728 33.728 0 0 1-33.92 34.112zM956.16 691.2h-136.32V827.712a68.864 68.864 0 0 1-20.48 48.32A67.968 67.968 0 0 1 751.36 896H273.28A68.416 68.416 0 0 1 204.8 827.712V691.2H68.48A68.416 68.416 0 0 1 0 622.912V281.6a68.416 68.416 0 0 1 68.48-68.288h102.4v-273.024A68.288 68.288 0 0 1 238.72-128h546.56a68.416 68.416 0 0 1 68.48 68.288v273.024h102.4A68.48 68.48 0 0 1 1024.64 281.6V622.912A68.416 68.416 0 0 1 956.16 691.2zM273.28 793.6a33.664 33.664 0 0 0 9.6 24.128 34.688 34.688 0 0 0 24.32 9.984h409.6a34.24 34.24 0 0 0 34.56-34.112v-102.4H273.28V793.6z m512-819.2a33.792 33.792 0 0 0-9.6-24.128 34.688 34.688 0 0 0-24.32-9.984H273.28a34.304 34.304 0 0 0-34.56 34.112V315.712a34.496 34.496 0 0 0 34.56 34.176h478.08a34.176 34.176 0 0 0 33.92-34.176V-25.600000000000023z m170.88 341.312a34.432 34.432 0 0 0-10.24-24.128 33.216 33.216 0 0 0-23.68-9.984h-68.48V349.88800000000003a68.352 68.352 0 0 1-68.48 68.224H238.72a68.224 68.224 0 0 1-67.84-68.224V281.6H102.4a34.112 34.112 0 0 0-33.92 34.112V588.8a34.112 34.112 0 0 0 33.92 34.112h819.84a34.112 34.112 0 0 0 33.92-34.112v-273.088z m-102.4 238.976a34.176 34.176 0 0 1 0-68.288 34.176 34.176 0 0 1 0 68.288z m-170.88-443.776H341.76a34.176 34.176 0 1 1 0-68.288h341.12a34.176 34.176 0 1 1 0 68.288z m0 0"  horiz-adv-x="1024" />

    
    <glyph glyph-name="tianjia" unicode="&#58939;" d="M1024 330.611317H541.667408v-458.611317H440.836175v458.611317H0V431.44255h440.836175V896h100.831233v-464.55745h482.332592v-100.831233z"  horiz-adv-x="1024" />

    
    <glyph glyph-name="huangguan" unicode="&#59060;" d="M907.2 638.8c0.8-0.3 1.4-0.7 2.2-1l0.4 3.3-2.6-2.3z m-803.1 0.5c0.4 0.2 0.9 0.3 1.3 0.6l-1.7 1.4 0.4-2z m769.7-40.1c-7.1 0-13.5-2.8-18.2-7.3-0.3-0.3-0.4-0.2-0.3 0.2L679.6 433.6 536.5 720.3c-6.7 8.9-17.3 14.5-29.3 14.5-14 0-26.2-7.9-32.4-19.4L334.1 433.6 152.8 597.2c-3.8 2.1-8.2 3.3-12.9 3.3-14.5 0-26.2-11.8-26.2-26.2 0-1.2-0.2-1.8-0.6-1.8l56.1-419.1c0 1.6-0.1 3.2-0.3 4.9 3.4-29.2 23.1-53.4 49.6-63.4-2.4 0.9-4.8 1.6-7 2 56.3-21.1 166.8-34.8 294.1-33.6 127.9 1.1 239.4 16.9 296.5 39.2-2.1-0.4-4.3-1-6.7-1.9 26.5 10.1 46.2 34.3 49.6 63.5-0.4-3.4-0.4-6.6-0.2-9.5l55.7 416.9c-0.2 0.2-0.4 0.8-0.4 1.7 0 14.2-11.7 26-26.3 26z"  horiz-adv-x="1024" />

    
    <glyph glyph-name="xiala1" unicode="&#59097;" d="M966.4 582.4c-12.8 12.8-38.4 12.8-51.2 0l-390.4-358.4-384 358.4c-12.8 12.8-32 12.8-51.2 0-12.8-12.8-12.8-32 0-44.8l416-384c6.4-6.4 12.8-6.4 25.6-6.4 6.4 0 19.2 0 25.6 6.4l416 384c6.4 12.8 6.4 32-6.4 44.8z"  horiz-adv-x="1024" />

    
    <glyph glyph-name="huiyishiqueren_huabanfuben" unicode="&#58904;" d="M799.4 715.52H223.82a69.62 69.62 0 0 1-69.61-69.61v-575.58a69.61 69.61 0 0 1 69.61-69.6H799.4a69.6 69.6 0 0 1 69.6 69.6V645.91a69.61 69.61 0 0 1-69.6 69.61z m-41.21-245.89l-278-278a38.86 38.86 0 0 0-55 0L265 351.67a38.92 38.92 0 0 0 55 55l132.63-132.55 250.53 250.54a38.91 38.91 0 1 0 55-55z"  horiz-adv-x="1024" />

    
    <glyph glyph-name="dingdanguanli" unicode="&#59022;" d="M611.536219 896h-210.878805a55.467516 55.467516 0 0 1 0-109.529173H612.686467A55.595321 55.595321 0 0 1 611.344511 896z m229.410579-36.488424h-105.183792a108.634536 108.634536 0 0 0 1.661469-18.21226 86.076894 86.076894 0 0 0-68.887076-91.380816H345.381606a85.885186 85.885186 0 0 0-70.931962 91.380816 108.634536 108.634536 0 0 0 1.725372 18.21226H169.713171C84.147498 859.511576 63.12352 808.006026 63.12352 733.751125V-1.8324890000000096C63.12352-81.710824 93.221677-126.44269199999997 176.16734-126.44269199999997h658.197483a106.909164 106.909164 0 0 1 123.33215 124.610203V733.751125A110.871129 110.871129 0 0 1 840.882895 859.511576zM732.823483 133.00214100000005H275.408184a41.600637 41.600637 0 0 0-33.676706 40.258681 32.845971 32.845971 0 0 0 31.120599 32.845972h456.137246a33.421095 33.421095 0 0 0 32.33475-32.845972 37.574769 37.574769 0 0 0-28.50059-40.258681z m1.853178 194.903138H277.261361a33.932317 33.932317 0 0 0-27.605952 37.127451 35.21037 35.21037 0 0 0 31.120599 35.849396h456.137246a36.232813 36.232813 0 0 0 32.33475-35.849396 39.555752 39.555752 0 0 0-34.571343-37.127451z m0 200.079255H277.261361a33.932317 33.932317 0 0 0-27.605952 37.12745 35.21037 35.21037 0 0 0 31.120599 35.849397h456.137246a36.232813 36.232813 0 0 0 32.33475-35.849397 39.555752 39.555752 0 0 0-34.571343-37.12745z m0 0"  horiz-adv-x="1024" />

    
    <glyph glyph-name="danpinguanli" unicode="&#59023;" d="M912.192-128H113.984C40.512-128-9.472-53.120000000000005 1.792 35.200000000000045L99.2 796.8A116.16 116.16 0 0 0 212.48 896h601.6a116.352 116.352 0 0 0 113.024-99.84l97.152-760.96c11.328-88.32-38.784-163.2-112.192-163.2zM768.64 768a64 64 0 0 1-44.096-110.08 212.416 212.416 0 0 0-423.232 0 64 64 0 1 1-70.848-11.52 283.2 283.2 0 0 1 564.928 0A64 64 0 0 1 768.64 768z m0 0"  horiz-adv-x="1025" />

    
    <glyph glyph-name="caigoudanguanli" unicode="&#59024;" d="M892.8 896H131.2A67.2 67.2 0 0 1 64 829.44v-890.88A67.2 67.2 0 0 1 131.2-128h761.6A67.2 67.2 0 0 1 960-61.440000000000055V829.44A67.2 67.2 0 0 1 892.8 896zM309.312 661.76h405.376a33.28 33.28 0 1 0 0-66.56H309.312a33.28 33.28 0 1 0 0 66.56z m0-218.88h172.8a33.28 33.28 0 1 0 0-66.56h-172.8a33.28 33.28 0 1 0 0 66.56z m487.936-119.04l-302.656-301.44a53.76 53.76 0 0 0-71.104 0l-2.56 3.2-148.8 148.48a49.28 49.28 0 0 0 0 70.4 50.496 50.496 0 0 0 71.104-0.64l115.584-115.2 267.648 266.24a50.112 50.112 0 1 0 70.784-71.04z m0 0"  horiz-adv-x="1024" />

    
    <glyph glyph-name="gerenzhanghuguanli" unicode="&#59025;" d="M1024 63.71555599999999V128h-56.888889a165.376 165.376 0 0 1-28.785778 67.697778l39.822223 40.96-38.4 39.253333-40.334223-40.96a160.142222 160.142222 0 0 1-67.185777 27.306667v57.457778H768v-56.888889a164.238222 164.238222 0 0 1-67.811556-28.444445l-41.016888 39.253334-39.025778-38.115556 40.96-40.391111a159.288889 159.288889 0 0 1-27.534222-67.128889h-57.571556v-64.284444h56.888889a168.675556 168.675556 0 0 1 28.785778-67.697778l-39.822223-40.96 38.4-38.684445 40.334223 40.96a161.393778 161.393778 0 0 1 67.185777-27.875555V-128h64v56.888889a165.774222 165.774222 0 0 1 67.868445 29.013333l40.96-39.822222 39.025778 38.115556-40.96 40.391111a164.977778 164.977778 0 0 1 27.534222 67.128889H1024z m-223.971556-51.768889a83.911111 83.911111 0 1 0 83.797334 84.195555 84.593778 84.593778 0 0 0-83.797334-84.195555zM512 896a239.502222 239.502222 0 1 1 239.388444-239.502222A239.217778 239.217778 0 0 1 512 896zM0-94.43555600000002V-128h592.668444a351.630222 351.630222 0 0 0 79.985778 518.826667A512 512 0 0 1 0-94.43555600000002z m0 0"  horiz-adv-x="1024" />

    
    <glyph glyph-name="caipuguanli" unicode="&#59026;" d="M829.978947 807.073684h-205.877894a34.223158 34.223158 0 0 1-33.792 27.486316h-2.694737V843.183158A53.032421 53.032421 0 0 1 535.228632 896h-46.241685a53.086316 53.086316 0 0 1-52.924631-52.816842v-8.623158h-3.17979a34.546526 34.546526 0 0 1-34.007579-27.486316H193.751579A58.799158 58.799158 0 0 1 134.467368 749.9452630000001v-819.2A59.284211 59.284211 0 0 1 193.751579-128h636.496842a59.284211 59.284211 0 0 1 59.284211 58.745263V749.9452630000001a58.799158 58.799158 0 0 1-59.284211 57.128421z m-494.753684-772.311579a33.792 33.792 0 1 0 24.198737 9.701053 34.061474 34.061474 0 0 0-24.198737-9.701053z m0 156.833684a34.061474 34.061474 0 0 0-34.277052 33.953685 34.277053 34.277053 0 1 0 68.554105 0 34.061474 34.061474 0 0 0-34.277053-33.953685z m62.194526 214.501053L334.955789 344.117895a14.443789 14.443789 0 0 0-20.048842 0l-41.87621 42.037894a13.473684 13.473684 0 0 0 0 19.402106 14.174316 14.174316 0 0 0 19.833263 0l32.336842-31.797895 52.601263 52.277895a14.066526 14.066526 0 1 0 19.833263-19.941053z m0 161.684211L334.955789 505.802105a14.443789 14.443789 0 0 0-20.048842 0l-41.87621 41.498948a14.066526 14.066526 0 1 0 19.833263 19.941052l32.336842-32.336842 52.655158 52.277895a14.174316 14.174316 0 0 0 19.833263 0 13.581474 13.581474 0 0 0 0-19.402105z m75.452632 275.402105a15.198316 15.198316 0 0 0 4.796632 11.317895 15.737263 15.737263 0 0 0 11.587368 4.850526h46.295579a15.845053 15.845053 0 0 0 11.587368-4.850526 15.198316 15.198316 0 0 0 4.796632-11.317895v-8.623158H472.872421V843.183158z m259.233684-790.63579H469.908211a20.857263 20.857263 0 0 0-21.018948 21.018948 21.180632 21.180632 0 0 0 21.018948 21.018947h262.197894a21.234526 21.234526 0 0 0 21.072842-21.018947 20.911158 20.911158 0 0 0-21.072842-21.018948z m0 151.444211H469.908211a21.180632 21.180632 0 0 0-21.018948 21.018947 20.857263 20.857263 0 0 0 21.018948 21.018948h262.197894a20.911158 20.911158 0 0 0 21.072842-21.018948 21.234526 21.234526 0 0 0-21.072842-21.018947z m0 158.989474H469.908211a20.749474 20.749474 0 1 0 0 41.498947h262.197894a20.749474 20.749474 0 1 0 0-41.498947z m0 151.44421H469.908211a20.857263 20.857263 0 0 0-21.018948 21.018948 21.180632 21.180632 0 0 0 21.018948 21.018947h262.197894a21.234526 21.234526 0 0 0 21.072842-21.018947 20.911158 20.911158 0 0 0-21.072842-21.018948z m0 0"  horiz-adv-x="1024" />

    
    <glyph glyph-name="gongyingshangguanli" unicode="&#59027;" d="M938.857115-7.682933000000048c13.311676-11.519719 31.99922-28.159314 56.766617-49.918783a180.027612 180.027612 0 0 1 26.751348-23.679423l-51.71074-43.518939c-35.775128 33.279189-63.99844 60.158534-85.117925 81.918003l44.798908 35.199142h-115.197192l51.710739-33.919173c-7.743811-8.319797-18.303554-19.839516-31.615229-33.279189-22.271457-23.679423-39.487038-41.598986-51.71074-53.118705l-51.710739 43.518939a648.368196 648.368196 0 0 1 71.614254 70.398284l6.399844 6.399844h-75.07017v59.51855h52.414722v74.878174h-43.390942v59.51855h43.390942v70.398284h65.022416v-70.398284h53.3107v70.398284h65.022415v-70.398284h43.262946v-59.51855h-43.262946v-74.878174H1023.975041v-59.51855h-85.117926z m-33.407185 134.396724h-53.310701v-74.878174h53.310701v74.878174z m-388.53453-59.518549a287.99298 287.99298 0 0 1 47.61484-158.076147l-4.479891-5.119875H131.964783A129.148852 129.148852 0 0 0 0 30.71613100000002V769.258129A129.532843 129.532843 0 0 0 131.964783 895.975041h651.568118a129.532843 129.532843 0 0 0 131.964784-126.716912v-417.909813a340.343704 340.343704 0 0 1-89.597816 12.159703 302.968615 302.968615 0 0 1-308.984469-296.312777zM584.049764 652.780968S456.948862 618.861795 433.269439 735.978941H359.607235a109.94932 109.94932 0 0 0-150.076342-82.557988c-37.503086-60.158534-38.783055-62.078487-38.783055-62.078487a94.589694 94.589694 0 0 0 0-160.636084l39.487038-62.718472a107.645376 107.645376 0 0 0 149.052366-80.638034h74.494185a111.357286 111.357286 0 0 0 149.564354 82.557987c35.903125 58.878565 36.479111 59.518549 36.479111 59.51855a101.75752 101.75752 0 0 0 0.511987 163.196022c-36.799103 59.518549-36.287116 60.158534-36.287115 60.158533zM394.998372 429.426413A82.621986 82.621986 0 1 0 480.82028 511.9844a84.349944 84.349944 0 0 0-85.821908-82.557987z m360.375216-187.51543a650.224151 650.224151 0 0 0-33.407186-81.278018v-287.352996h-65.022415v170.23585c-8.959782-12.799688-18.303554-25.599376-28.351309-38.399064a509.235587 509.235587 0 0 0-3.391917 37.119096c-3.26392 25.599376-5.567864 44.158924-6.399844 55.678642a522.163272 522.163272 0 0 1 68.414332 160.636085z"  horiz-adv-x="1512" />

    
    <glyph glyph-name="jichushezhi" unicode="&#59028;" d="M1024 311.03999999999996V456.96h-130.176a380.16 380.16 0 0 1-65.856 155.52l90.688 93.44-87.744 88.96-92.16-93.44a364.224 364.224 0 0 1-153.6 62.72V896H438.848v-129.92a382.72 382.72 0 0 1-155.072-65.92L190.144 790.4 100.928 702.72 194.56 610.56a363.328 363.328 0 0 1-62.912-153.6H0v-145.92h130.176a380.16 380.16 0 0 1 65.856-155.52l-90.688-93.44 87.744-88.96 92.16 93.44a364.224 364.224 0 0 1 153.6-62.72V-128h146.304v129.92a382.72 382.72 0 0 1 155.072 65.92l93.632-90.24 89.216 87.68-93.632 92.16a363.328 363.328 0 0 1 62.912 153.6H1024z m-512-118.4a190.848 190.848 0 1 0 135.488 55.68A191.552 191.552 0 0 0 512 192.64z m0 0"  horiz-adv-x="1024" />

    
    <glyph glyph-name="leibieguanli" unicode="&#59029;" d="M358.400384 867.200432H83.204512A81.98277 81.98277 0 0 1 0.00576 784.64167v-273.2759A81.598776 81.598776 0 0 1 83.204512 428.807008h275.195872a81.598776 81.598776 0 0 1 83.198752 82.558762V784.64167A80.446793 80.446793 0 0 1 358.400384 867.200432z m353.274701-425.593616a94.65458 94.65458 0 0 1 70.398944-28.159578 101.118483 101.118483 0 0 1 70.398944 28.159578l142.845857 142.077869a100.158498 100.158498 0 0 1 0 141.437878L852.472973 867.200432a102.974455 102.974455 0 0 1-142.845857 0L571.965181 725.122563a100.158498 100.158498 0 0 1 0-141.437878zM625.916371 668.803408l142.845858 141.437878a18.68772 18.68772 0 0 0 15.615765 7.679885 22.527662 22.527662 0 0 0 15.551767-7.679885l142.845857-141.437878a23.935641 23.935641 0 0 0 0-31.35953l-142.845857-141.437878a23.935641 23.935641 0 0 0-31.167532 0L625.916371 637.443878a19.647705 19.647705 0 0 0 0 31.35953zM358.400384 310.40878399999997H83.204512A81.98277 81.98277 0 0 1 0.00576 227.85002199999997v-273.275901A81.598776 81.598776 0 0 1 83.204512-127.98464000000001h275.195872a81.598776 81.598776 0 0 1 83.198752 82.558761v273.275901a80.446793 80.446793 0 0 1-83.198752 82.558762z m563.639545 0h-275.195872a82.046769 82.046769 0 0 1-83.198752-82.558762v-273.275901a81.662775 81.662775 0 0 1 83.198752-82.558761h275.195872a81.598776 81.598776 0 0 1 83.198753 82.558761v273.275901a81.98277 81.98277 0 0 1-83.198753 82.558762z m0 0"  horiz-adv-x="1024" />

    
    <glyph glyph-name="shicaiguanli" unicode="&#59030;" d="M535.571348 370.6376l456.263006 236.836858-22.403486 38.405977-456.263006-236.836858-456.263006 236.836858-24.195766-38.405977 456.263006-236.836858v-474.953914h46.599252V370.6376z m399.93424-300.206719l-340.404975-178.587793a180.764131 180.764131 0 0 0-164.057532 0l-342.389284 178.587793A161.113073 161.113073 0 0 0 0 211.89289599999995V556.266489a161.113073 161.113073 0 0 0 88.653797 141.462015L429.826892 876.316297a180.764131 180.764131 0 0 0 164.057531 0l341.621165-178.587793A161.113073 161.113073 0 0 0 1024.159385 556.266489v-344.373593a161.113073 161.113073 0 0 0-88.653797-141.462015z m0 0"  horiz-adv-x="1025" />

    
    <glyph glyph-name="shitangyuangongzhanghuguanli" unicode="&#59031;" d="M1019.257263 72.48842100000002a49.098105 49.098105 0 0 0-46.403368 81.381053 173.002105 173.002105 0 0 1-68.392421 40.421052 49.367579 49.367579 0 0 0-46.888421-34.492631 48.505263 48.505263 0 0 0-46.511158 35.031579 166.642526 166.642526 0 0 1-68.71579-39.882106 49.259789 49.259789 0 0 0 6.144-57.667368 48.128 48.128 0 0 0-53.248-23.174737 173.541053 173.541053 0 0 1-5.389473-39.882105 164.271158 164.271158 0 0 1 4.796631-39.882105 49.152 49.152 0 0 0 46.403369-81.381053 160.875789 160.875789 0 0 1 68.392421-40.421053 49.259789 49.259789 0 0 0 46.834526 34.492632 49.852632 49.852632 0 0 0 46.511158-35.031579 167.073684 167.073684 0 0 1 68.769684 39.882105 48.990316 48.990316 0 0 0 47.050105 80.842106 169.822316 169.822316 0 0 1 5.389474 39.882105 167.504842 167.504842 0 0 1-4.742737 39.882105zM856.926316-31.52842099999998A64.673684 64.673684 0 0 0 792.953263 33.684211000000005a64.242526 64.242526 0 1 0 63.973053-65.212632z m-314.745263 268.395789a274.485895 274.485895 0 0 0-18.162527 23.174737 626.849684 626.849684 0 0 1-64.40421 24.791579c-5.012211 1.616842-35.678316 12.395789-16.168421 77.069474 3.179789 3.772632 6.251789 7.006316 9.323789 10.24a127.568842 127.568842 0 0 1 11.317895 9.162105 120.077474 120.077474 0 0 0-12.126316 26.947369 107.789474 107.789474 0 0 0 20.210526 105.094736 200.380632 200.380632 0 0 0 105.795369 160.606316c-1.509053 0.538947-2.856421 1.616842-4.581053 2.15579a51.307789 51.307789 0 0 1-9.10821 1.077894 409.222737 409.222737 0 0 1-1.347369 28.025264A190.517895 190.517895 0 0 1 373.652211 896H316.793263a190.464 190.464 0 0 1-189.224421-190.787368s-1.024-10.778947-1.401263-28.025264a51.307789 51.307789 0 0 1-9.108211-1.077894 53.032421 53.032421 0 0 1-20.533894-68.446316 64.673684 64.673684 0 0 1 37.726315-44.732632 268.449684 268.449684 0 0 1 111.939369-196.176842c2.640842-2.694737 5.389474-5.389474 7.868631-8.623158a51.954526 51.954526 0 0 0-24.953263-74.374737c-103.747368-37.726316-228.783158-106.711579-228.783158-174.618947v-25.330526c0-92.698947 181.032421-113.717895 346.112-113.717895 22.689684 0 45.594947 0.538947 68.284632 1.616842a106.064842 106.064842 0 0 0-34.330947 79.764211v18.32421c0 79.225263 88.225684 134.736842 162.115368 167.073684z m0 0l156.941473-36.109473a240.693895 240.693895 0 0 0 59.284211 40.96c0.700632 2.694737 1.131789 5.928421 2.209684 9.162105 2.533053 2.694737 4.904421 5.389474 7.329684 8.084211a197.039158 197.039158 0 0 1 73.620211 135.814736 47.265684 47.265684 0 0 1 26.947368 31.797895 37.726316 37.726316 0 0 1-14.713263 49.044211 13.150316 13.150316 0 0 1-6.467368 0c0 12.934737-0.916211 21.018947-0.916211 21.018947a136.569263 136.569263 0 0 1-135.653053 136.892632h-40.798315a136.569263 136.569263 0 0 1-135.653053-136.892632s-0.700632-8.084211-0.91621-21.018947a26.408421 26.408421 0 0 1-6.521264 0 37.726316 37.726316 0 0 1-14.713263-49.044211 47.265684 47.265684 0 0 1 26.947369-31.797895 193.212632 193.212632 0 0 1 78.794105-139.048421c2.263579-2.155789 4.581053-4.850526 7.06021-7.545263a37.726316 37.726316 0 0 0-17.893052-53.355789c-74.320842-26.947368-163.947789-76.530526-163.94779-125.03579v-18.32421c0-56.050526 93.507368-75.452632 194.021053-80.303158a82.512842 82.512842 0 0 0-3.072 8.08421 228.567579 228.567579 0 0 0 0.485053 109.945263 63.541895 63.541895 0 0 0 48.074105 46.888422 62.679579 62.679579 0 0 0 16.653474 64.673684z m0 0"  horiz-adv-x="1024" />

    
    <glyph glyph-name="shouye" unicode="&#59032;" d="M17.728 475.52A51.2 51.2 0 0 1 0 437.76a49.472 49.472 0 0 1 49.6-49.28h99.328v-467.2a49.344 49.344 0 0 1 49.6-49.152h164.608a49.408 49.408 0 0 1 49.664 49.152v196.8h198.4v-196.8a49.28 49.28 0 0 1 49.6-49.152H825.6a49.344 49.344 0 0 1 49.6 49.152v467.2h99.328a49.408 49.408 0 0 1 49.6 49.28 48.064 48.064 0 0 1-19.2 37.76C834.56 617.7919999999999 512.128 896 512.128 896S189.44 617.7919999999999 17.856 475.52z m0 0"  horiz-adv-x="1024" />

    
    <glyph glyph-name="zhanghuguanli" unicode="&#59033;" d="M862.016 896H161.984A161.856 161.856 0 0 1 0 734.08v-700.16A161.856 161.856 0 0 1 161.984-128h700.032A161.856 161.856 0 0 1 1024 33.91999999999996V734.08A161.856 161.856 0 0 1 862.016 896z m-77.696-875.52H257.28v60.8a148.736 148.736 0 0 0 152.768 144.64H473.6v46.08a198.976 198.976 0 0 0-115.84 122.24 27.968 27.968 0 0 0-22.976 21.76l-6.4 30.08a27.136 27.136 0 0 0 12.8 28.8c0 5.12-0.384 10.24-0.384 14.72a185.6 185.6 0 0 0 179.2 202.88 164.352 164.352 0 0 0 110.4 3.2l-25.6-7.04a184.064 184.064 0 0 0 45.632-7.68l-13.568-3.84a199.808 199.808 0 0 0 46.08-7.68l-52.032-14.08a206.528 206.528 0 0 0 71.36-165.76c0-4.48 0-9.6-0.448-14.72a27.776 27.776 0 0 0 12.032-28.8l-6.4-30.08a29.184 29.184 0 0 0-22.208-21.76 197.696 197.696 0 0 0-116.544-122.24v-46.08h63.168a148.8 148.8 0 0 0 152.768-144.64v-60.8z"  horiz-adv-x="1024" />

    
    <glyph glyph-name="taocanguanli1" unicode="&#59034;" d="M938.56-128H85.44A85.504 85.504 0 0 0 0-42.879999999999995V480.64a85.056 85.056 0 0 0 85.44 85.12h853.12A85.056 85.056 0 0 0 1024 480.64v-523.52A85.504 85.504 0 0 0 938.56-128z m-96 858.24H179.2a71.616 71.616 0 0 1-71.616-71.68v-55.68h806.4v55.68a71.616 71.616 0 0 1-71.68 71.68zM765.76 896h-505.6a71.616 71.616 0 0 1-71.68-71.68v-55.68h648.768v55.68A71.68 71.68 0 0 1 765.504 896z"  horiz-adv-x="1024" />

    
    <glyph glyph-name="kaobei" unicode="&#59035;" d="M1226.692686 748.224182c-1.534005 0.511335-2.04534 1.02267-3.579345 1.534005l4.09068 3.579346zM1128.516364 26.730485a118.374055 118.374055 0 0 0-75.677581-96.642317 55.121914 55.121914 0 0 0 10.2267 3.06801A1464.667999 1464.667999 0 0 0 612.068006-126.670018a1445.69747 1445.69747 0 0 0-447.929468 51.133501 42.440806 42.440806 0 0 0 10.738035-3.06801 118.374055 118.374055 0 0 0-75.677581 96.642317 36.202519 36.202519 0 0 0 0.511335-7.15869L14.31738 649.025191c0.511335 0 1.02267 0.511335 1.02267 2.556675A39.935264 39.935264 0 0 0 55.224181 691.465996a40.906801 40.906801 0 0 0 19.43073-5.11335l276.120905-249.020149L565.025185 866.342569a56.246851 56.246851 0 0 0 94.085641 7.670026l217.828714-436.680098 267.42821 241.350124c-0.511335-0.511335 0-0.511335 0.511335-0.511335a38.605793 38.605793 0 0 0 27.61209 11.24937 39.832997 39.832997 0 0 0 39.884131-39.372795 6.187154 6.187154 0 0 1 0.511335-2.556675l-84.881612-635.078081a138.827455 138.827455 0 0 0 0.511335 14.31738z m-345.15113 63.405541h-230.612089a89.279093 89.279093 0 0 0 7.670025 38.861461 122.720402 122.720402 0 0 0 27.100755 33.236775c13.29471 11.24937 39.372796 30.680101 77.722921 57.269521a279.649116 279.649116 0 0 1 80.790932 76.700252 167.257681 167.257681 0 0 1 23.52141 88.972291 114.896976 114.896976 0 0 1-38.350125 91.017632 147.673551 147.673551 0 0 1-101.244332 33.74811 164.75214 164.75214 0 0 1-68.007556-12.783375 155.54811 155.54811 0 0 1-51.644836-36.304786v-56.758185a188.682618 188.682618 0 0 0 54.712846 41.92947 129.725692 129.725692 0 0 0 58.292191 14.828715 92.551637 92.551637 0 0 0 64.428211-21.47607 74.808312 74.808312 0 0 0 23.52141-58.803526 114.07884 114.07884 0 0 0-19.942065-65.962216 310.942819 310.942819 0 0 0-74.143576-66.984886 529.078334 529.078334 0 0 1-78.745592-63.916876 173.853903 173.853903 0 0 1-36.304785-54.201511 192.773298 192.773298 0 0 1-10.738036-68.518891v-23.010076h291.972291v52.156171zM0 753.848868l2.556675-2.556675a3.06801 3.06801 0 0 0-2.04534-0.511336z"  horiz-adv-x="1228" />

    
    <glyph glyph-name="kaobei1" unicode="&#59036;" d="M1226.692686 748.224182c-1.534005 0.511335-2.04534 1.02267-3.579345 1.534005l4.09068 3.579346zM1128.516364 26.730485a118.374055 118.374055 0 0 0-75.677581-96.642317 55.121914 55.121914 0 0 0 10.2267 3.06801A1464.667999 1464.667999 0 0 0 612.068006-126.670018a1445.69747 1445.69747 0 0 0-447.929468 51.133501 42.440806 42.440806 0 0 0 10.738035-3.06801 118.374055 118.374055 0 0 0-75.677581 96.642317 36.202519 36.202519 0 0 0 0.511335-7.15869L14.31738 649.025191c0.511335 0 1.02267 0.511335 1.02267 2.556675A39.935264 39.935264 0 0 0 55.224181 691.465996a40.906801 40.906801 0 0 0 19.43073-5.11335l276.120905-249.020149L565.025185 866.342569a56.246851 56.246851 0 0 0 94.085641 7.670026l217.828714-436.680098 267.42821 241.350124c-0.511335-0.511335 0-0.511335 0.511335-0.511335a38.605793 38.605793 0 0 0 27.61209 11.24937 39.832997 39.832997 0 0 0 39.884131-39.372795 6.187154 6.187154 0 0 1 0.511335-2.556675l-84.881612-635.078081a138.827455 138.827455 0 0 0 0.511335 14.31738z m-494.972288 485.768258h-21.987405a359.570778 359.570778 0 0 0-64.428212-42.440805 388.052138 388.052138 0 0 0-78.745591-32.214106v-57.780856a289.466748 289.466748 0 0 1 60.337531 24.032746 189.193953 189.193953 0 0 1 46.531486 31.191435v-397.307302h58.292191V512.498743zM0 753.848868l2.556675-2.556675a3.06801 3.06801 0 0 0-2.04534-0.511336z"  horiz-adv-x="1228" />

    
    <glyph glyph-name="kaobei2" unicode="&#59037;" d="M1226.692686 748.224182c-1.534005 0.511335-2.04534 1.02267-3.579345 1.534005l4.09068 3.579346zM1128.516364 26.730485a118.374055 118.374055 0 0 0-75.677581-96.642317 55.121914 55.121914 0 0 0 10.2267 3.06801A1464.667999 1464.667999 0 0 0 612.068006-126.670018a1445.69747 1445.69747 0 0 0-447.929468 51.133501 42.440806 42.440806 0 0 0 10.738035-3.06801 118.374055 118.374055 0 0 0-75.677581 96.642317 36.202519 36.202519 0 0 0 0.511335-7.15869L14.31738 649.025191c0.511335 0 1.02267 0.511335 1.02267 2.556675A39.935264 39.935264 0 0 0 55.224181 691.465996a40.906801 40.906801 0 0 0 19.43073-5.11335l276.120905-249.020149L565.025185 866.342569a56.246851 56.246851 0 0 0 94.085641 7.670026l217.828714-436.680098 267.42821 241.350124c-0.511335-0.511335 0-0.511335 0.511335-0.511335a38.605793 38.605793 0 0 0 27.61209 11.24937 39.832997 39.832997 0 0 0 39.884131-39.372795 6.187154 6.187154 0 0 1 0.511335-2.556675l-84.881612-635.078081a138.827455 138.827455 0 0 0 0.511335 14.31738z m-374.297226 371.740551a102.267002 102.267002 0 0 1-35.793451 80.279597 139.850125 139.850125 0 0 1-95.619646 31.191435 206.630477 206.630477 0 0 1-106.357682-26.58942v-55.224181a149.105289 149.105289 0 0 0 92.040301 32.72544A71.586901 71.586901 0 0 0 693.881607 384.664991c0-55.224181-37.327456-82.836271-111.471032-82.836271h-36.816121v-48.576826h38.350126c84.370276 0 126.299747-29.146096 126.299747-87.949622a77.109319 77.109319 0 0 0-28.123425-62.894206 114.129974 114.129974 0 0 0-76.188917-23.52141 170.88816 170.88816 0 0 0-107.380351 36.816121v-60.848867a203.409067 203.409067 0 0 1 106.357681-24.54408 179.325188 179.325188 0 0 1 120.163728 38.350126 125.635012 125.635012 0 0 1 44.99748 100.732996 103.340805 103.340805 0 0 1-29.146095 75.166247 126.095213 126.095213 0 0 1-79.768262 35.79345v1.02267a112.90277 112.90277 0 0 1 93.062972 117.095717zM0 753.848868l2.556675-2.556675a3.06801 3.06801 0 0 0-2.04534-0.511336z"  horiz-adv-x="1228" />

    
    <glyph glyph-name="gengduo" unicode="&#59038;" d="M990.783981 308.056367l-433.495501-418.135424a66.987002 66.987002 0 0 0-45.226892-17.92009 63.744319 63.744319 0 0 0-58.880295 38.400192 59.050962 59.050962 0 0 0 13.653402 67.413671l422.402112 406.188697L466.834695 791.045449a60.330968 60.330968 0 0 0 0 87.040435 66.04833 66.04833 0 0 0 90.453785 0l433.495501-417.282087a104.277855 104.277855 0 0 0 0-152.74743z m-447.148902 0l-434.348839-418.135424a66.987002 66.987002 0 0 0-45.226892-17.92009 63.744319 63.744319 0 0 0-58.880295 38.400192 59.050962 59.050962 0 0 0 13.653402 67.413671l422.402112 406.188697L18.832455 791.045449a60.330968 60.330968 0 0 0 0 87.040435 66.04833 66.04833 0 0 0 90.453785 0l434.348839-417.282087a105.643195 105.643195 0 0 0 0-152.74743z"  horiz-adv-x="1026" />

    
    <glyph glyph-name="touxiang" unicode="&#59039;" d="M512 896a512 512 0 1 1 512-512A512 512 0 0 1 512 896z m368.896-864.5888a510.3616 510.3616 0 0 0-743.936 5.7856 482.9184 482.9184 0 0 0 226.56 92.5184 28.3392 28.3392 0 0 1 23.808 29.0048v49.4848c0 40.96-47.616 87.7312-50.432 143.36a226.5856 226.5856 0 0 0-24.832 91.136 46.2592 46.2592 0 0 0 11.264 34.1504c-3.84 20.48-7.168 42.6496-11.264 65.1776-17.92 88.7552 16.384 144.7424 92.672 178.8672 14.848 6.4768 3.84 94.5408 19.968 78.848 44.544-43.008 164.096-63.8208 192.768-74.0608 79.872-28.3392 111.616-93.8752 95.232-184.6784-4.096-22.528-7.424-44.3648-11.264-65.1776a46.2592 46.2592 0 0 0 11.264-34.1504 226.9696 226.9696 0 0 0-25.6-91.136c-2.816-55.9616-50.432-103.7568-50.432-143.36v-49.4848a28.3136 28.3136 0 0 1 23.808-29.0048 479.1552 479.1552 0 0 0 225.792-92.7232l0.512 0.5632v-1.024a0.9216 0.9216 0 0 0-0.512 0.4608z"  horiz-adv-x="1024" />

    
    <glyph glyph-name="sousuo" unicode="&#59040;" d="M1081.353692-59.515688l-211.862854 174.182547a460.695064 460.695064 0 0 1 94.55624 295.754856A481.881349 481.881349 0 0 1 486.289234 896a485.22281 485.22281 0 0 1 0-970.445621 506.62238 506.62238 0 0 1 329.169467 128.681801l211.151904-174.182548a28.437967 28.437967 0 0 1 23.461323-7.820441 63.345571 63.345571 0 0 1 31.281764 14.929933 36.187313 36.187313 0 0 1 0 53.321188z m-595.064458 60.43068a409.648913 409.648913 0 1 0 399.553435 409.506723 405.880883 405.880883 0 0 0-399.553435-409.506723z m0 0"  horiz-adv-x="1095" />

    
    <glyph glyph-name="guanbi" unicode="&#59041;" d="M512 896a512 512 0 1 1 512-512 511.634286 511.634286 0 0 1-512 512z m219.428571-664.868571a47.030857 47.030857 0 1 0-66.56-66.56L512 317.44 358.4 164.571429a46.372571 46.372571 0 0 0-65.828571 0 47.250286 47.250286 0 0 0 0 66.56L445.44 384 292.571429 536.868571A47.250286 47.250286 0 0 0 292.571429 603.428571a46.372571 46.372571 0 0 0 65.828571 0L512 450.56 664.868571 603.428571a47.030857 47.030857 0 1 0 66.56-66.56L578.56 384z m0 0"  horiz-adv-x="1024" />

    
    <glyph glyph-name="fuzhi" unicode="&#59042;" d="M825.438518-128H360.098264v86.469093H34.132537a33.051673 33.051673 0 0 0-34.132537 31.857035V736.122059a33.051673 33.051673 0 0 0 34.132537 31.857035h68.265074v-63.714069h-34.132537v-682.081863h291.83319V519.38045h390.817548V704.265025h-34.132537V767.979094h68.265074a33.051673 33.051673 0 0 0 34.132537-31.857035v-216.741609H1023.976107v-471.029009z m1.137751 90.451223l100.690984 83.624715h-100.690984v-83.624715z m129.134764 493.215158H428.363338v-519.383436h329.947857v174.075938h197.399838V455.666381z m-438.603099-137.099023h350.427379v-64.85182H517.107934v64.85182z m178.058068-245.18539H517.107934v64.282944h178.058068v-64.282944zM136.530148 767.979094h136.530147V832.262038A66.501559 66.501559 0 0 0 341.325369 895.976107h136.530148a66.501559 66.501559 0 0 0 68.265074-63.714069v-64.282944H682.650738v-145.632158H136.530148V767.979094z m204.795221 0h136.530148V832.262038H341.325369v-64.282944z"  horiz-adv-x="1024" />

    
    <glyph glyph-name="chongzhishezhi" unicode="&#59056;" d="M1187.366234 197.795526H949.892987a93.122039 93.122039 0 1 0 0 186.198902h237.473247A46.952542 46.952542 0 0 0 1234.800649 337.52376v-93.106981a46.982659 46.982659 0 0 0-47.434415-46.681488z m-237.473247 139.728234a46.485727 46.485727 0 1 1 47.434415-46.470668 46.982659 46.982659 0 0 1-47.434415 46.470668z m-142.453831 0v-93.106981a94.025552 94.025552 0 0 1 94.868831-93.091922h237.473246v-186.213961A94.176137 94.176137 0 0 0 1044.761818-127.996085H95.019416A94.176137 94.176137 0 0 0 0-34.889104V756.407292A141.113621 141.113621 0 0 0 142.453831 895.984941h949.892987a46.485727 46.485727 0 1 0 0-92.941336H142.453831a46.485727 46.485727 0 1 1 0-92.956395h902.307987a94.161079 94.161079 0 0 0 95.019415-93.091923v-186.213961H902.307987a94.35684 94.35684 0 0 1-94.868831-93.257566z m0 0"  horiz-adv-x="1234" />

    
    <glyph glyph-name="jifenduihuan" unicode="&#59057;" d="M878.435305 618.690474H708.316426a271.869897 271.869897 0 0 1 52.03729 38.069662c68.092185 64.587151 80.405752 157.660911 27.410156 207.939119A120.483916 120.483916 0 0 1 703.039183 895.942633a199.537539 199.537539 0 0 1-134.425289-57.235768 270.24209 270.24209 0 0 1-56.658159-79.552466 273.944037 273.944037 0 0 1-56.658159 79.552466A199.708196 199.708196 0 0 1 320.872287 895.942633a121.271565 121.271565 0 0 1-84.803454-31.243378C183.21764 814.421046 195.531206 721.347287 263.557754 656.760136a271.869897 271.869897 0 0 1 52.03729-38.069662H145.476165A74.104566 74.104566 0 0 1 72.185502 544.126446v-261.367921h403.131465v303.244549a81.311547 81.311547 0 0 1 34.81405 18.641007c0.735138 0.656373 1.168345 1.575296 1.824718 2.100395 0.656373-0.656373 1.168345-1.444022 1.837846-2.100395a83.0575 83.0575 0 0 1 34.814049-18.641007v-303.244549H951.725968V544.126446a74.104566 74.104566 0 0 1-73.290663 74.564028zM619.600986 783.046394a126.850739 126.850739 0 0 0 83.47758 36.62564 50.107552 50.107552 0 0 0 33.711342-10.764525 30.547622 30.547622 0 0 0 9.084209-24.679643 106.227484 106.227484 0 0 0-36.415601-71.807259 208.949934 208.949934 0 0 0-126.299386-54.872823 69.457442 69.457442 0 0 0-17.577682 2.100395c-7.259491 15.09659 8.493473 80.077565 54.019538 123.398215z m-341.563633 1.312747a30.363837 30.363837 0 0 0 9.189229 24.548368 50.133807 50.133807 0 0 0 33.711342 10.764525 126.916377 126.916377 0 0 0 83.490707-36.62564c45.801742-43.583199 61.567833-109.351822 55.135373-122.348017a38.253447 38.253447 0 0 0-18.693517-3.150593 208.542983 208.542983 0 0 0-126.207493 54.872823A106.069955 106.069955 0 0 0 278.1555 784.359141zM548.647013-128H878.474688a74.209586 74.209586 0 0 1 73.290663 74.695302V208.063223H548.60763V-128zM72.185502-53.304698A74.209586 74.209586 0 0 1 145.476165-128h329.840802V208.063223H72.185502v-261.367921z m0 0"  horiz-adv-x="1024" />

    
    <glyph glyph-name="pintuan" unicode="&#59058;" d="M959.040779-127.990626h-894.143283A63.902401 63.902401 0 0 0 0-67.160039V608.696909A63.88798 63.88798 0 0 0 64.897496 669.527496h174.502157A274.949059 274.949059 0 0 0 515.372651 895.947649 279.448619 279.448619 0 0 0 794.201138 669.527496H959.040779a63.88798 63.88798 0 0 0 64.897496-60.830587v-675.856948A63.902401 63.902401 0 0 0 959.040779-127.990626zM518.747321 821.603962A204.600173 204.600173 0 0 1 316.555565 669.527496H721.083292A204.600173 204.600173 0 0 1 518.790586 821.603962zM242.283986 527.603882c3.417935-47.317486 3.417935-94.62055 3.417935-141.938035v-283.861649a1038.633953 1038.633953 0 0 0-3.417935-104.758981h498.326242l54.600427-3.37467c-3.403513 50.692155-3.403513 57.441495-3.403513 108.162494V385.665847a965.89107 965.89107 0 0 0 6.821448 141.938035H242.283986z m51.196914-43.928394h443.754658v-442.745142l-443.711393 3.389092V483.675488z m75.093614-381.87129a982.115444 982.115444 0 0 1 105.797341 94.620549 586.9618 586.9618 0 0 1 78.511549 111.522742v-148.687375a24.661049 24.661049 0 0 0-13.657318-27.040623 152.27837 152.27837 0 0 0-61.436296-3.37467 116.95971 116.95971 0 0 0 20.478765-57.455917 268.560261 268.560261 0 0 1 75.093614 13.527523q30.718148 10.095166 30.718148 50.677734V328.224352c34.121661 0 64.897496-3.389091 92.154445-3.389092v50.692156a724.039734 724.039734 0 0 0-92.154445-3.37467 545.730257 545.730257 0 0 0 3.417935 84.482118H549.465469a545.730257 545.730257 0 0 0 3.417935-84.482118l-112.633211 3.37467a807.007578 807.007578 0 0 0-88.73651 3.389091v-50.692155a812.761822 812.761822 0 0 0 85.318576 3.374669h71.675679a462.185547 462.185547 0 0 0-71.675679-101.384311 333.140481 333.140481 0 0 0-112.633211-87.856788 103.316814 103.316814 0 0 0 44.418731-40.553724z"  horiz-adv-x="1024" />

    
    <glyph glyph-name="suyuanxinxi" unicode="&#59059;" d="M977.565194 809.302546a11.883008 11.883008 0 0 1-12.529702 9.96987 560.145043 560.145043 0 0 0-167.736333 10.104599C705.549406 848.508388 540.507632 888.657325 515.448228 895.393724a9.659996 9.659996 0 0 1-6.736399 0C483.787153 886.097494 318.610652 826.817183 212.579733 821.02388a1279.605921 1279.605921 0 0 0-150.895336-0.943096 14.671877 14.671877 0 0 1-15.897902-13.33807 1568.759108 1568.759108 0 0 1 1.751464-399.333728c35.837642-253.153871 404.453391-499.706072 456.997303-533.11861a11.182422 11.182422 0 0 1 12.529702 0c53.352279 35.029274 430.455891 289.93461 462.925334 550.633247a1635.597658 1635.597658 0 0 1-2.425104 384.378923zM769.006284 456.719426h-210.175647a11.478824 11.478824 0 0 1-11.721334-11.721334v-243.992369a11.397987 11.397987 0 0 0-11.721334-11.721334h-43.382409a11.371041 11.371041 0 0 0-11.586606 11.721334V444.998092a11.478824 11.478824 0 0 1-11.721334 11.721334h-210.175647a11.371041 11.371041 0 0 0-11.721334 11.586606v43.517138a11.397987 11.397987 0 0 0 11.721334 11.721334h210.175647a11.397987 11.397987 0 0 1 11.721334 11.721334V712.298401a11.371041 11.371041 0 0 0 11.586606 11.721335h43.382409a11.397987 11.397987 0 0 0 11.721334-11.721335v-177.032563a11.397987 11.397987 0 0 1 11.721334-11.721334h210.175647a11.397987 11.397987 0 0 0 11.721334-11.721334v-43.517138a11.371041 11.371041 0 0 0-11.721334-11.586606z m0 0"  horiz-adv-x="1024" />

    
    <glyph glyph-name="yushouhuodong" unicode="&#59061;" d="M976.087579 447.865263V794.004211a27.607579 27.607579 0 0 1-27.311158 27.351578H947.2L564.399158 848.707368a22.016 22.016 0 0 1-13.648842-2.829473 22.568421 22.568421 0 0 1-9.916632-6.467369L70.602105 363.789474a91.621053 91.621053 0 0 1-23.471158-60.227369 82.526316 82.526316 0 0 1 25.70779-58.475789l307.806316-302.484211A79.966316 79.966316 0 0 1 439.242105-80.842105a86.231579 86.231579 0 0 1 60.119579 25.6l470.312421 477.507368a29.763368 29.763368 0 0 1 6.548211 25.734737z m-303.413895-54.703158l-105.000421-3.233684 62.922105-60.227368a22.393263 22.393263 0 0 0 0-33.818948 24.805053 24.805053 0 0 0-36.082526 0l-70.602105 67.233684-33.845895-33.818947 72.650105-68.985263a22.272 22.272 0 0 0 0-33.953684 29.480421 29.480421 0 0 0-36.096 0l-71.518315 67.907368-63.959579-64a24.818526 24.818526 0 0 0-36.096 0 22.541474 22.541474 0 0 0 0 33.953684l65.091368 64-70.507789 67.368421a22.258526 22.258526 0 0 0 0 33.818948 25.047579 25.047579 0 0 0 36.096 0l69.941894-66.829474 33.940211 33.953684-72.838737 68.850527a22.245053 22.245053 0 0 0 0 33.818947 24.818526 24.818526 0 0 0 36.096 0l63.946105-60.631579 1.684211 102.804211a23.700211 23.700211 0 0 0 23.471158 23.578947h2.236631a23.686737 23.686737 0 0 0 23.471158-23.578947l-1.68421-102.804211 105.000421 3.233684a25.088 25.088 0 0 0 25.249684-23.44421 24.468211 24.468211 0 0 0-23.565474-25.19579z m76.570948 210.593684a38.130526 38.130526 0 0 0-27.270737 10.778948 39.073684 39.073684 0 1 0 27.270737-10.778948z m0-33.414736a70.063158 70.063158 0 1 0 71.06021 70.063158 70.669474 70.669474 0 0 0-71.06021-70.063158z m0 0"  horiz-adv-x="1024" />

    
    <glyph glyph-name="suyuanmobanguanli" unicode="&#59062;" d="M1077.823827 154.794027v-67.094534h-60.62759a166.766292 166.766292 0 0 0-28.966515-70.732188l43.112953-42.439313-41.092034-40.418394-43.112953 41.496217a177.935241 177.935241 0 0 0-71.405828-30.313795V-114.527202h-67.363989v60.762318a167.251312 167.251312 0 0 0-70.732189 28.831787l-42.439313-42.978225-40.418394 40.957306 41.765673 42.978225a174.567042 174.567042 0 0 0-30.313795 71.675284H606.275903v67.094534h60.62759a166.766292 166.766292 0 0 0 28.966516 70.732188l-43.112954 42.439314 41.092034 40.418393 43.112953-41.496217a177.935241 177.935241 0 0 0 71.405829 30.313795V357.020722h67.363989v-60.762318a167.251312 167.251312 0 0 0 70.732188-28.831787l42.439314 42.978225 40.418393-40.957306-41.765673-42.978225a174.567042 174.567042 0 0 0 30.313795-71.675284H1077.823827z m-162.212486 14.820077a87.856115 87.856115 0 1 1-11.182422-110.881126 87.97737 87.97737 0 0 1 11.182422 110.881126z m25.463588 226.477732A296.172515 296.172515 0 0 1 552.384712 114.510361a294.070759 294.070759 0 0 1 45.538056-157.227551c-54.969015-43.112953-98.890336-72.61838-114.653509-82.992434a11.182422 11.182422 0 0 0-12.529702 0c-52.543912 33.412539-421.159661 279.964739-456.997303 533.11861A1568.759108 1568.759108 0 0 0 11.99079 806.742714a14.671877 14.671877 0 0 0 15.897902 13.33807 1279.605921 1279.605921 0 0 1 150.895335 0.943096C284.814946 826.817183 449.991448 886.097494 474.916124 895.393724a9.659996 9.659996 0 0 0 6.736399 0c25.059404-6.736399 190.101178-46.885336 281.850931-66.016709a560.145043 560.145043 0 0 1 167.736333-10.104599 11.883008 11.883008 0 0 0 12.529702-9.96987 1635.597658 1635.597658 0 0 0 2.425103-384.378923c-1.212552-9.700414-2.964016-19.266101-5.119663-28.831787z m-194.143017 115.731334a11.397987 11.397987 0 0 1-11.721334 11.721334h-210.175646a11.397987 11.397987 0 0 0-11.721334 11.721334V712.298401a11.397987 11.397987 0 0 1-11.721334 11.721335h-43.382409a11.371041 11.371041 0 0 1-11.586607-11.721335v-177.032563a11.397987 11.397987 0 0 0-11.721334-11.721334h-210.175646a11.397987 11.397987 0 0 1-11.721334-11.721334v-43.517138a11.371041 11.371041 0 0 1 11.721334-11.586606h210.175646a11.478824 11.478824 0 0 0 11.721334-11.721334v-243.992369a11.371041 11.371041 0 0 1 11.586607-11.721334h43.382409a11.397987 11.397987 0 0 1 11.721334 11.721334V444.998092a11.478824 11.478824 0 0 0 11.721334 11.721334h210.175646a11.371041 11.371041 0 0 1 11.721334 11.586606v43.517138z"  horiz-adv-x="1077" />

    


  </font>
</defs>
</svg>
